<svg xmlns="http://www.w3.org/2000/svg" width="72" height="45" viewBox="0 0 72 45"><path fill="#B3B3B3" d="M6.5 19.292c.25-.376 17.503-11.247 17.503-11.247 1.32-.833 3.516-.89 4.877-.127l1.307.73c1.36.763 3.432.536 4.6-.5l.715-.635c1.167-1.037 3.328-1.46 4.798-.938l5.337 1.886c1.472.522 1.905 1.965.966 3.21L28.37 35.79a2.787 2.787 0 01-3.946.516l-6.55-5.133c-1.228-.963-2.063-2.23-1.856-2.813s-.617-1.866-1.83-2.848L6.5 19.292z"/><path fill="#414141" d="M22.507 26.87c-1.3-.866-1.36-2.366-.137-3.335L41.455 8.42c1.225-.97 3.428-1.33 4.896-.798l.545.195c1.47.53 3.31-.14 4.09-1.49l.415-.716c.78-1.352 2.688-2.288 4.232-2.083l4.762.63c1.55.206 2.188 1.485 1.426 2.847L60.59 9.19a2.838 2.838 0 001.09 3.856l2.43 1.357a2.67 2.67 0 01.968 3.785L51.326 40.034c-.83 1.32-2.662 1.847-4.068 1.17L41.73 38.54c-1.404-.68-2.668-2.02-2.807-2.984-.14-.965-1.32-2.2-2.63-2.752s-3.11-.89-4.005-.75c-.895.137-2.69-.46-3.99-1.324l-5.79-3.86z"/><path fill="#FFF" d="M36.33 19.33s.234-.256.66-.687c.435-.424 1.033-1.054 1.785-1.767.748-.72 1.638-1.543 2.603-2.41l.393-.347.397-.302c.297-.186.672-.408 1.008-.516a6.3 6.3 0 012.176-.435c.376-.02.76.034 1.136.1l.56.145.483.17c.645.217 1.27.46 1.876.68 1.217.45 2.346.89 3.307 1.282.963.385 1.752.75 2.313.983.557.246.87.396.87.396s-.345-.067-.935-.213c-.585-.152-1.433-.345-2.433-.624a94.135 94.135 0 01-3.402-.992c-.617-.193-1.262-.383-1.906-.602l-.485-.16-.44-.104c-.298-.043-.607-.086-.925-.063a5.236 5.236 0 00-1.852.337c-.313.104-.523.225-.805.367l-.41.278-.355.282c-1.01.812-1.967 1.554-2.797 2.175-.825.63-1.542 1.118-2.03 1.478-.5.36-.79.548-.79.548z"/></svg>